<?xml version="1.0" encoding="utf-8"?>
<!-- Generator: Adobe Illustrator 21.1.0, SVG Export Plug-In . SVG Version: 6.00 Build 0)  -->
<!DOCTYPE svg PUBLIC "-//W3C//DTD SVG 1.1//EN" "http://www.w3.org/Graphics/SVG/1.1/DTD/svg11.dtd">
<svg version="1.1" id="Layer_1" xmlns="http://www.w3.org/2000/svg" xmlns:xlink="http://www.w3.org/1999/xlink" x="0px" y="0px"
	 width="780px" height="280px" viewBox="0 0 780 280" style="enable-background:new 0 0 780 280;" xml:space="preserve">
<style type="text/css">
	.st0{fill:#F7CD1E;}
	.st1{fill:none;stroke:#00A4C2;stroke-width:4;stroke-miterlimit:10;}
	.st2{fill:none;stroke:#E9592C;stroke-width:4;stroke-miterlimit:10;}
	.st3{fill:#E9592C;}
	.st4{fill:#5B2C82;}
	.st5{fill:#BBBF28;}
	.st6{fill:#00A4C2;}
	.st7{fill:none;stroke:#5B2C82;stroke-width:6;stroke-miterlimit:10;}
	.st8{fill:none;stroke:#FFFFFF;stroke-width:4;stroke-miterlimit:10;}
	.st9{fill:#BB0F73;}
	.st10{fill:none;stroke:#FFFFFF;stroke-width:3.0305;stroke-miterlimit:10;}
	.st11{fill:none;stroke:#BBBF28;stroke-width:3;stroke-miterlimit:10;}
	.st12{fill:none;stroke:#BB0F73;stroke-width:3;stroke-miterlimit:10;}
</style>
<path class="st0" d="M249.1,94V76.4c-24.6,0-44.6,19.8-44.6,44.2v17.6c0,24.4,19.9,44.2,44.6,44.2s44.6-19.8,44.6-44.2
	C293.7,113.8,273.7,94,249.1,94z"/>
<path class="st1" d="M691,91.5V69.6c-30.6,0-55.4,24.6-55.4,55v21.9c0,30.4,24.8,55,55.4,55c30.6,0,55.4-24.6,55.4-55
	C746.4,116.1,721.6,91.5,691,91.5z"/>
<path class="st2" d="M181.1,240.1v10.1c14.1,0,25.6-11.4,25.6-25.4v-10.1c0-14-11.4-25.4-25.6-25.4c-14.1,0-25.6,11.4-25.6,25.4
	C155.5,228.8,167,240.1,181.1,240.1z"/>
<path class="st3" d="M575.1,34.6v-6.2c-8.6,0-15.6,6.9-15.6,15.4V50c0,8.5,7,15.4,15.6,15.4s15.6-6.9,15.6-15.4
	C590.7,41.5,583.7,34.6,575.1,34.6z"/>
<path class="st4" d="M58.5,62.8v-4.3c-6.1,0-11,4.9-11,10.9v4.3c0,6,4.9,10.9,11,10.9s11-4.9,11-10.9C69.5,67.7,64.6,62.8,58.5,62.8
	z"/>
<path class="st4" d="M727.6,202.3v5.2c7.2,0,13.1-5.8,13.1-13v-5.2c0-7.2-5.8-13-13.1-13c-7.2,0-13.1,5.8-13.1,13
	C714.5,196.5,720.4,202.3,727.6,202.3z"/>
<path class="st5" d="M635.1,127.7c-27.3,0-49.5,22-49.5,49.1c0,27.1,22.2,49.1,49.5,49.1v19.6c27.3,0,49.5-22,49.5-49.1v-19.6
	C684.7,149.7,662.5,127.7,635.1,127.7z"/>
<path class="st6" d="M188.7,28.5c-13.3,0-24,10.7-24,23.8c0,13.2,10.7,23.8,24,23.8v9.5c13.3,0,24-10.7,24-23.8v-9.5
	C212.7,39.1,201.9,28.5,188.7,28.5z"/>
<g>
	<path class="st7" d="M309.8,101.1c-30.3,10.2-51.6,34.5-51.6,62.8c0,16.9,7.7,32.4,20.3,44.3c-0.5,10.2-2.8,21.9-7.1,32.5
		c-1.2,2.9,1.4,6,4.5,5.2c18-4.4,29.8-11.4,37.1-18.3c8.9,2.7,18.6,4.2,28.6,4.2c20.6,0,39.5-6.1,54.1-16.2"/>
	<line class="st7" x1="395.7" y1="79.8" x2="395.7" y2="108.5"/>
	<line class="st7" x1="447.3" y1="79.8" x2="447.3" y2="108.5"/>
	<path class="st7" d="M495,173.4c16.5-14.8,26.7-34.6,26.7-56.4c0-45.9-44.9-83.1-100.3-83.1s-100.3,37.2-100.3,83.1
		s44.9,83.1,100.3,83.1c9.4,0,18.4-1.1,27-3.1c10.1,9.1,26,18.3,49.7,24.1c4.2,1,7.8-3.2,6.2-7.2C499.1,200.8,496.1,186.5,495,173.4
		z"/>
	<path class="st7" d="M487.4,114.2c0,28.5-29.5,51.6-65.9,51.6s-65.9-23.1-65.9-51.6"/>
</g>
<path class="st8" d="M636.8,186.3c4.2-3,7.7-7.4,7.7-12.6c0,0,0-5,0-5.9c0-1,2.5-3.5,2.5-8c0-4.5-1.1-6.6-3.3-8.2
	c-2.6-1.8-6.6-1.9-6.6,0.5v2c0,5.4-3.6,8.9-6.9,11.7c0,0-5,4-6.9,4c-1.9,0-11.1,0-11.1,0v24.9h8.9c4.4,0,3.4,5,9.7,5
	c1.2,0,23.5,0,23.5,0c2.2,0,4.7-2.5,4.7-4.6l3.1-16.8c0.7-4.2-2.5-8.4-6.8-8.4h-5.8"/>
<path class="st9" d="M71.1,224c20.7,0,37.5-16.7,37.5-37.2c0-20.6-16.8-37.2-37.5-37.2v-14.8c-20.7,0-37.5,16.7-37.5,37.2v14.8
	C33.6,207.4,50.4,224,71.1,224z"/>
<path class="st10" d="M69.9,179.7c-3.2,2.3-5.8,5.6-5.8,9.5c0,0,0,3.8,0,4.5c0,0.8-1.9,2.7-1.9,6.1c0,3.4,0.8,5,2.5,6.2
	c2,1.4,5,1.5,5-0.4V204c0-4.1,2.7-6.8,5.2-8.8c0,0,3.8-3,5.2-3c1.4,0,8.4,0,8.4,0v-18.8h-6.7c-3.3,0-2.6-3.8-7.3-3.8
	c-0.9,0-17.8,0-17.8,0c-1.6,0-3.5,1.9-3.5,3.5l-2.4,12.7c-0.5,3.2,1.9,6.4,5.1,6.4h4.4"/>
<path class="st11" d="M136.4,56.6H98.5c-4,0-7.2,3.2-7.2,7.2v30.7c0,4,3.2,7.2,7.2,7.2h20.4l12.6,13c1.1,1.2,3.1,0.4,3.1-1.3v-11.8
	h1.8c4,0,7.2-3.2,7.2-7.2V63.8C143.7,59.8,140.4,56.6,136.4,56.6z"/>
<line class="st11" x1="102.1" y1="69.2" x2="132.8" y2="69.2"/>
<line class="st11" x1="102.1" y1="78.2" x2="132.8" y2="78.2"/>
<line class="st11" x1="102.1" y1="87.3" x2="116.6" y2="87.3"/>
<path class="st12" d="M594.3,125.9H569l-5.3,6.7l-5.3-6.7h-4c-1.5,0-2.7-1.2-2.7-2.7v-20c0-1.5,1.2-2.7,2.7-2.7h40
	c1.5,0,2.7,1.2,2.7,2.7v20C597,124.7,595.8,125.9,594.3,125.9z"/>
<g>
	<line class="st12" x1="561" y1="117.2" x2="578.3" y2="117.2"/>
	<line class="st12" x1="561" y1="109.6" x2="587.7" y2="109.6"/>
</g>
</svg>
